<svg version="1.1" id="Layer_1" xmlns:x="ns_extend;" xmlns:i="ns_ai;" xmlns:graph="ns_graphs;" xmlns="http://www.w3.org/2000/svg" xmlns:xlink="http://www.w3.org/1999/xlink" x="0px" y="0px" viewBox="0 0 449.2 50" style="enable-background:new 0 0 449.2 50;" xml:space="preserve">
 <style type="text/css">
  .st0{fill:#2726DD;}
 </style>
 <metadata>
  <sfw xmlns="ns_sfw;">
   <slices>
   </slices>
   <sliceSourceBounds bottomLeftOrigin="true" height="50" width="449.2" x="-24" y="-225.2">
   </sliceSourceBounds>
  </sfw>
 </metadata>
 <path class="st0" d="M225.4,14.7c7.6,0,12.7,3.5,15.1,8.9c1.1,2.6,1.7,5.6,1.7,8.8c0,3.2-0.6,6.2-1.7,8.8c-2.4,5.3-7.5,8.9-15.1,8.9
	s-12.7-3.5-15.1-8.9c-1.2-2.6-1.7-5.6-1.7-8.8s0.6-6.2,1.7-8.8C212.8,18.2,217.8,14.7,225.4,14.7z M411.5,0.3v48.9H406v-5.1
	c-2.6,4-6.9,5.9-12.1,5.9c-6.6,0-11.4-3.1-13.7-8.3c-1.2-2.6-1.8-5.8-1.8-9.3c0-3.5,0.6-6.6,1.8-9.3c2.4-5.3,7.1-8.4,13.7-8.4
	c5.1,0,9.4,1.9,12,5.8V0.3H411.5z M432.5,14.7c7.4,0,12.6,3.3,15,8.6c1.3,3.1,1.7,6.2,1.7,10.3h-27.9c0.1,2.3,0.5,4.3,1.3,6
	c1.7,3.7,5.2,5.7,10.3,5.7c3.3,0,6.1-0.8,8-2.5c1.5-1.4,2.4-3.4,2.6-5.5h5.5c-0.3,3.6-1.7,6.4-4,8.7c-2.9,2.6-7.1,4-12.1,4
	c-7.6,0-13.1-3.3-15.5-8.8c-1.2-2.4-1.7-5.3-1.7-8.8c0-3.6,0.6-6.4,1.7-8.9C419.8,18,425.1,14.7,432.5,14.7z M310.9,0.3v48.9h-5.5
	v-5.1c-2.6,4-6.9,5.9-12.1,5.9c-6.6,0-11.4-3.1-13.7-8.3c-1.2-2.6-1.8-5.8-1.8-9.3c0-3.5,0.6-6.6,1.8-9.3c2.4-5.3,7.1-8.4,13.7-8.4
	c5.1,0,9.4,1.9,12,5.8V0.3H310.9z M35.1,0c1,0,1.6,1,1.2,1.8l0,0.1L15.5,47.1c-0.7,1.6-2.4,2.7-4.1,2.7h-0.1h-10c-1,0-1.6-1-1.2-1.8
	l0-0.1L20.9,2.7C21.7,1.1,23.2,0,25,0h0.1H35.1z M39.6,10.2c0.4-0.9,1.8-1,2.2-0.1l0,0.1l17.4,37.7c0.4,0.9-0.2,1.8-1.1,1.9H58h-9.9
	c-1.8,0-3.4-1-4.2-2.6l0-0.1L35,27.8c-1.1-2.3-1.1-5-0.1-7.4l0.1-0.1L39.6,10.2z M124.7,0c1.1,0,2,0.9,2,1.9V2v45.8
	c0,1.1-0.9,2-1.9,2h-0.1h-9.1c-1.1,0-2-0.9-2-1.9v-0.1V2c0-1.1,0.9-2,1.9-2h0.1H124.7z M105.8,0c1,0,1.7,1,1.3,1.9V2l-3.5,7.7
	c-1,2.1-3,3.4-5.3,3.5h-0.1H83.9c-6.4,0-11.8,5-12,11.5c-0.2,6.5,5.1,11.9,11.6,12.1h0.2h14.4c2.3,0,4.4,1.3,5.4,3.4l0.1,0.1
	l3.5,7.7c0.4,0.9-0.2,2-1.2,2h-0.1H83.6c-13.8,0-25-11.3-24.9-25.1C58.9,11.1,70,0.3,83.5,0h0.4L105.8,0L105.8,0z M374.3,15.5v33.7
	h-5.5V15.5H374.3z M273.6,0.3v48.9h-5.5V0.3H273.6z M261.1,15.1c1.3,0,2.4,0.1,3.4,0.4v5c-1-0.2-2.2-0.3-3.4-0.3
	c-6.1,0-9.1,3.8-9.1,10.3v18.7h-5.5V15.5h5.5v4.3C253.7,17,256.7,15.1,261.1,15.1z M320,15.5l8.8,26.8l8.2-26.8h5.5l8.2,26.8
	l8.9-26.8h5.9l-12.1,33.7h-5.7l-8-26.2l-8,26.2H326l-12-33.7H320z M153.9,0.3l11.7,41l11.2-41h6.4L194.3,41L206,0.3h5.8l-14.3,48.9
	h-6.4l-11.3-41l-11.3,41h-6.3L148,0.3C148,0.3,153.9,0.3,153.9,0.3z M395.3,19.6c-4.5,0-8,1.9-9.6,5.7c-0.8,1.8-1.3,4.2-1.3,7.1
	c0,2.9,0.5,5.2,1.3,7.1c1.7,3.8,5.1,5.7,9.6,5.7c6.4,0,10.7-4.3,10.7-12v-1.7C406,23.8,401.8,19.6,395.3,19.6z M294.6,19.6
	c-4.5,0-8,1.9-9.6,5.7c-0.8,1.8-1.3,4.2-1.3,7.1c0,2.9,0.5,5.2,1.3,7.1c1.7,3.8,5.1,5.7,9.6,5.7c6.4,0,10.7-4.3,10.7-12v-1.7
	C305.3,23.8,301.1,19.6,294.6,19.6z M225.4,19.6c-4.9,0-8.1,2.2-9.7,5.5l-0.1,0.1c-0.9,1.9-1.3,4.4-1.3,7.1s0.3,5.1,1.3,7.1
	c1.6,3.5,4.7,5.7,9.7,5.7c4.9,0,8.1-2.2,9.7-5.7c0.9-2,1.3-4.4,1.3-7.1s-0.3-5.2-1.3-7.1C233.5,21.7,230.4,19.6,225.4,19.6z
	 M432.6,19.3c-5,0-8.4,2-10.1,5.8c-0.6,1.3-0.9,2.6-1.1,4.2h22.1c-0.2-1.8-0.6-3.2-1.1-4.6C440.8,21.3,437.5,19.3,432.6,19.3z
	 M371.6,2.6c2,0,3.6,1.5,3.6,3.5c0,2.1-1.6,3.5-3.6,3.5c-2.3,0-3.8-1.4-3.8-3.5C367.9,4,369.3,2.6,371.6,2.6z">
 </path>
</svg>